# xmcd
#
# Track frame offsets:
# 150
# 16313
# 33375
# 48861
# 60177
# 91020
# 102831
# 118490
# 132947
# 151524
# 163604
#
# Disc length: 2329 seconds
#
#
# Revision: 0
# Processed by: cddbd v1.5.1PL0 Copyright (c) Steve Scherf et al.
# Submitted via: FreeRIP 2.92 
#
DISCID=7909170b
DTITLE=Rob Roy Parnell - Jacksboro Highway
DYEAR=1999
DGENRE=Blues
TTITLE0=Lucky Little Thing
TTITLE1=Crazy Mixed Up World
TTITLE2=She's Got It Goin' On
TTITLE3=Letter To My Girlfriend
TTITLE4=Jacksboro Highway
TTITLE5=Oopin' Doopin' Doopin'
TTITLE6=Brown Bag Blues
TTITLE7=It's My Life
TTITLE8=Keep What I Got
TTITLE9=Come On Back Home
TTITLE10=Cotton Patch Hot Foot
EXTD=
EXTT0=
EXTT1=
EXTT2=
EXTT3=
EXTT4=
EXTT5=
EXTT6=
EXTT7=
EXTT8=
EXTT9=
EXTT10=
PLAYORDER=
